{"title":"[GER] Interview mit Edward Snowden","uid":9528163,"size":216864980,"categoryP":"video","categoryS":"other","magnet":"?xt=urn:btih:d8c496af5211c48fa3cff19084146bebf7ee2998&amp;dn=%5BGER%5D+Interview+mit+Edward+Snowden&amp;tr=udp%3A%2F%2Ftracker.openbittorrent.com%3A80&amp;tr=udp%3A%2F%2Fopen.demonii.com%3A1337&amp;tr=udp%3A%2F%2Ftracker.coppersurfer.tk%3A6969&amp;tr=udp%3A%2F%2Fexodus.desync.com%3A6969","seeders":3,"leechers":0,"uploader":"fleaz","files":1,"time":1390784513,"description":"Das erste Interview mit Edward Snowden nach seiner Flucht.\n\nAusgestrahlt im ARD am 26.01.2014.\n\n== MEDIA INFO ==\nGeneral\nComplete name                            : TV-20140126-2149-2442.hi.mp4\nFormat                                   : MPEG-4\nFormat profile                           : Base Media / Version 2\nCodec ID                                 : mp42\nFile size                                : 207 MiB\nDuration                                 : 32mn 12s\nOverall bit rate mode                    : Variable\nOverall bit rate                         : 898 Kbps\nEncoded date                             : UTC 2014-01-26 21:13:12\nTagged date                              : UTC 2014-01-26 21:13:12\n\nVideo\nID                                       : 1\nFormat                                   : AVC\nFormat/Info                              : Advanced Video Codec\nFormat profile                           : &lt;a class=&quot;__cf_email__&quot; href=&quot;/cdn-cgi/l/email-protection&quot; data-cfemail=&quot;d890b1bfb09894eaf6e9&quot;&gt;[email&amp;#160;protected]&lt;/a&gt;&lt;script cf-hash='f9e31' type=&quot;text/javascript&quot;&gt;\n/* &lt;![CDATA[ */!function(){try{var t=&quot;currentScript&quot;in document?document.currentScript:function(){for(var t=document.getElementsByTagName(&quot;script&quot;),e=t.length;e--;)if(t[e].getAttribute(&quot;cf-hash&quot;))return t[e]}();if(t&amp;&amp;t.previousSibling){var e,r,n,i,c=t.previousSibling,a=c.getAttribute(&quot;data-cfemail&quot;);if(a){for(e=&quot;&quot;,r=parseInt(a.substr(0,2),16),n=2;a.length-n;n+=2)i=parseInt(a.substr(n,2),16)^r,e+=String.fromCharCode(i);e=document.createTextNode(e),c.parentNode.replaceChild(e,c)}}}catch(u){}}();/* ]]&gt; */&lt;/script&gt;\nFormat settings, CABAC                   : Yes\nFormat settings, ReFrames                : 4 frames\nCodec ID                                 : avc1\nCodec ID/Info                            : Advanced Video Coding\nDuration                                 : 32mn 12s\nBit rate mode                            : Variable\nBit rate                                 : 768 Kbps\nMaximum bit rate                         : 1 200 Kbps\nWidth                                    : 512 pixels\nHeight                                   : 288 pixels\nDisplay aspect ratio                     : 16:9\nFrame rate mode                          : Constant\nFrame rate                               : 25.000 fps\nColor space                              : YUV\nChroma subsampling                       : 4:2:0\nBit depth                                : 8 bits\nScan type                                : Progressive\nBits/(Pixel*Frame)                       : 0.208\nStream size                              : 177 MiB (86%)\nLanguage                                 : English\nEncoded date                             : UTC 2014-01-26 21:13:12\nTagged date                              : UTC 2014-01-26 21:13:12\n\nAudio\nID                                       : 2\nFormat                                   : AAC\nFormat/Info                              : Advanced Audio Codec\nFormat profile                           : LC\nCodec ID                                 : 40\nDuration                                 : 32mn 12s\nBit rate mode                            : Variable\nBit rate                                 : 125 Kbps\nMaximum bit rate                         : 169 Kbps\nChannel count                            : 2 channels\nChannel positions                        : Front: L R\nSampling rate                            : 48.0 KHz\nCompression mode                         : Lossy\nStream size                              : 28.9 MiB (14%)\nLanguage                                 : German\nEncoded date                             : UTC 2014-01-26 21:13:12\nTagged date                              : UTC 2014-01-26 21:13:12","torrent":{"xt":"urn:btih:d8c496af5211c48fa3cff19084146bebf7ee2998","amp;dn":"%5BGER%5D+Interview+mit+Edward+Snowden","amp;tr":["udp%3A%2F%2Ftracker.openbittorrent.com%3A80","udp%3A%2F%2Fopen.demonii.com%3A1337","udp%3A%2F%2Ftracker.coppersurfer.tk%3A6969","udp%3A%2F%2Fexodus.desync.com%3A6969"],"infoHash":"d8c496af5211c48fa3cff19084146bebf7ee2998","infoHashBuffer":{"type":"Buffer","data":[216,196,150,175,82,17,196,143,163,207,241,144,132,20,107,235,247,238,41,152]},"announce":[],"urlList":[]}}